<mxfile host="app.diagrams.net" modified="2023-08-29T09:53:20.122Z" agent="Mozilla/5.0 (Windows NT 10.0; Win64; x64) AppleWebKit/537.36 (KHTML, like Gecko) Chrome/116.0.0.0 Safari/537.36 Edg/116.0.1938.62" etag="KCHpTCgD9DP9hvmD8va2" version="21.6.9" type="github">
  <diagram name="Page-1" id="BPT0dxRXpc8yNHI9Q1fD">
    <mxGraphModel dx="1379" dy="796" grid="1" gridSize="10" guides="1" tooltips="1" connect="1" arrows="1" fold="1" page="1" pageScale="1" pageWidth="850" pageHeight="1100" math="0" shadow="0">
      <root>
        <mxCell id="0" />
        <mxCell id="1" parent="0" />
        <mxCell id="KHG4dUdLZ2IhNZQlTHtd-1" value="Authentication Flow Token" style="swimlane;rounded=1;shadow=0;glass=0;comic=0;swimlaneFillColor=none;fillColor=#dae8fc;strokeColor=#6c8ebf;dashed=1;dashPattern=1 4;" vertex="1" parent="1">
          <mxGeometry x="76" y="80" width="699" height="500" as="geometry" />
        </mxCell>
        <mxCell id="KHG4dUdLZ2IhNZQlTHtd-2" style="edgeStyle=orthogonalEdgeStyle;curved=1;orthogonalLoop=1;jettySize=auto;html=1;exitX=0.5;exitY=1;exitDx=0;exitDy=0;entryX=0;entryY=0.5;entryDx=0;entryDy=0;" edge="1" parent="KHG4dUdLZ2IhNZQlTHtd-1" source="KHG4dUdLZ2IhNZQlTHtd-6" target="KHG4dUdLZ2IhNZQlTHtd-14">
          <mxGeometry relative="1" as="geometry" />
        </mxCell>
        <mxCell id="KHG4dUdLZ2IhNZQlTHtd-3" value="(1) Authentication&lt;br&gt;Client Credentials" style="text;html=1;align=center;verticalAlign=middle;resizable=0;points=[];labelBackgroundColor=none;rotation=45;fontStyle=0" vertex="1" connectable="0" parent="KHG4dUdLZ2IhNZQlTHtd-2">
          <mxGeometry x="-0.0011" y="12" relative="1" as="geometry">
            <mxPoint x="58.03" y="-61.89999999999998" as="offset" />
          </mxGeometry>
        </mxCell>
        <mxCell id="KHG4dUdLZ2IhNZQlTHtd-4" style="edgeStyle=orthogonalEdgeStyle;curved=1;orthogonalLoop=1;jettySize=auto;html=1;exitX=0.5;exitY=0;exitDx=0;exitDy=0;entryX=0.5;entryY=0;entryDx=0;entryDy=0;" edge="1" parent="KHG4dUdLZ2IhNZQlTHtd-1" source="KHG4dUdLZ2IhNZQlTHtd-6" target="KHG4dUdLZ2IhNZQlTHtd-9">
          <mxGeometry relative="1" as="geometry">
            <Array as="points">
              <mxPoint x="84" y="60.52000000000001" />
              <mxPoint x="614" y="60.52000000000001" />
            </Array>
          </mxGeometry>
        </mxCell>
        <mxCell id="KHG4dUdLZ2IhNZQlTHtd-5" value="(3) REST Request (w/ JWT)" style="text;html=1;align=center;verticalAlign=middle;resizable=0;points=[];labelBackgroundColor=none;fontStyle=0;rotation=0;" vertex="1" connectable="0" parent="KHG4dUdLZ2IhNZQlTHtd-4">
          <mxGeometry x="-0.1203" y="-13" relative="1" as="geometry">
            <mxPoint x="50.019999999999996" y="-23.520000000000003" as="offset" />
          </mxGeometry>
        </mxCell>
        <mxCell id="KHG4dUdLZ2IhNZQlTHtd-6" value="DevOps&lt;br&gt;WebApi&lt;br&gt;(back-end)" style="whiteSpace=wrap;html=1;fontStyle=1" vertex="1" parent="KHG4dUdLZ2IhNZQlTHtd-1">
          <mxGeometry x="19" y="80.00000000000001" width="130" height="69.5" as="geometry" />
        </mxCell>
        <mxCell id="KHG4dUdLZ2IhNZQlTHtd-7" style="edgeStyle=orthogonalEdgeStyle;curved=1;orthogonalLoop=1;jettySize=auto;html=1;exitX=0.5;exitY=1;exitDx=0;exitDy=0;entryX=1;entryY=0.5;entryDx=0;entryDy=0;" edge="1" parent="KHG4dUdLZ2IhNZQlTHtd-1" source="KHG4dUdLZ2IhNZQlTHtd-9" target="KHG4dUdLZ2IhNZQlTHtd-14">
          <mxGeometry relative="1" as="geometry" />
        </mxCell>
        <mxCell id="KHG4dUdLZ2IhNZQlTHtd-8" value="(4) Verify Authenticity" style="text;html=1;align=center;verticalAlign=middle;resizable=0;points=[];labelBackgroundColor=none;fontStyle=0;rotation=-45;" vertex="1" connectable="0" parent="KHG4dUdLZ2IhNZQlTHtd-7">
          <mxGeometry x="0.2119" y="-18" relative="1" as="geometry">
            <mxPoint x="-33.59" y="-46.80999999999999" as="offset" />
          </mxGeometry>
        </mxCell>
        <mxCell id="KHG4dUdLZ2IhNZQlTHtd-9" value="Project Management&lt;br&gt;WebApi&lt;br&gt;(back-end)" style="whiteSpace=wrap;html=1;fontStyle=1" vertex="1" parent="KHG4dUdLZ2IhNZQlTHtd-1">
          <mxGeometry x="549" y="91.02000000000001" width="130" height="69.5" as="geometry" />
        </mxCell>
        <mxCell id="KHG4dUdLZ2IhNZQlTHtd-10" style="edgeStyle=orthogonalEdgeStyle;curved=1;orthogonalLoop=1;jettySize=auto;html=1;exitX=0.5;exitY=0;exitDx=0;exitDy=0;dashed=1;entryX=1;entryY=0.5;entryDx=0;entryDy=0;" edge="1" parent="KHG4dUdLZ2IhNZQlTHtd-1" source="KHG4dUdLZ2IhNZQlTHtd-14" target="KHG4dUdLZ2IhNZQlTHtd-6">
          <mxGeometry relative="1" as="geometry">
            <mxPoint x="332" y="119.52000000000001" as="targetPoint" />
          </mxGeometry>
        </mxCell>
        <mxCell id="KHG4dUdLZ2IhNZQlTHtd-11" value="(2) Authorization&lt;br&gt;JSON Web Token (JWT)&amp;nbsp;" style="text;html=1;align=center;verticalAlign=middle;resizable=0;points=[];labelBackgroundColor=none;rotation=45;fontStyle=0" vertex="1" connectable="0" parent="KHG4dUdLZ2IhNZQlTHtd-10">
          <mxGeometry x="-0.0865" relative="1" as="geometry">
            <mxPoint x="-66.03" y="45.96999999999999" as="offset" />
          </mxGeometry>
        </mxCell>
        <mxCell id="KHG4dUdLZ2IhNZQlTHtd-12" style="edgeStyle=orthogonalEdgeStyle;curved=1;orthogonalLoop=1;jettySize=auto;html=1;exitX=0.5;exitY=0;exitDx=0;exitDy=0;entryX=0;entryY=0.5;entryDx=0;entryDy=0;dashed=1;" edge="1" parent="KHG4dUdLZ2IhNZQlTHtd-1" source="KHG4dUdLZ2IhNZQlTHtd-14" target="KHG4dUdLZ2IhNZQlTHtd-9">
          <mxGeometry relative="1" as="geometry" />
        </mxCell>
        <mxCell id="KHG4dUdLZ2IhNZQlTHtd-13" value="(5) OK / Unauthorized" style="text;html=1;align=center;verticalAlign=middle;resizable=0;points=[];labelBackgroundColor=none;rotation=-45;" vertex="1" connectable="0" parent="KHG4dUdLZ2IhNZQlTHtd-12">
          <mxGeometry x="-0.1634" y="-66" relative="1" as="geometry">
            <mxPoint x="-1.03" y="23.78" as="offset" />
          </mxGeometry>
        </mxCell>
        <mxCell id="KHG4dUdLZ2IhNZQlTHtd-14" value="PRIMAVERA&lt;br&gt;Identity Server" style="whiteSpace=wrap;html=1;fontStyle=1" vertex="1" parent="KHG4dUdLZ2IhNZQlTHtd-1">
          <mxGeometry x="283" y="340.52" width="130" height="69.5" as="geometry" />
        </mxCell>
      </root>
    </mxGraphModel>
  </diagram>
</mxfile>
